<?xml version="1.0" standalone="no"?>
<!DOCTYPE svg PUBLIC "-//W3C//DTD SVG 20010904//EN"
 "http://www.w3.org/TR/2001/REC-SVG-20010904/DTD/svg10.dtd">
<svg version="1.0" xmlns="http://www.w3.org/2000/svg"
 width="1920.000000pt" height="1920.000000pt" viewBox="0 0 1920.000000 1920.000000"
 preserveAspectRatio="xMidYMid meet">
<metadata>
Created by potrace 1.14, written by Peter Selinger 2001-2017
</metadata>
<g transform="translate(0.000000,1920.000000) scale(0.100000,-0.100000)"
fill="#000000" stroke="none">
<path d="M9507 15606 c-31 -7 -60 -10 -63 -7 -3 3 -2 -3 2 -14 4 -11 4 -17 -1
-13 -4 4 -17 2 -29 -4 -11 -7 -24 -11 -28 -10 -5 1 -8 -3 -8 -8 0 -6 -14 -24
-30 -40 -17 -17 -27 -30 -23 -30 4 0 3 -4 -2 -8 -6 -4 -15 -18 -22 -32 -64
-138 -78 -166 -87 -172 -6 -4 -7 -8 -3 -8 5 0 1 -7 -7 -16 -9 -8 -14 -20 -11
-25 4 -5 3 -9 -2 -9 -8 0 -47 -85 -48 -105 -1 -5 -6 -9 -11 -8 -6 1 -11 -3
-12 -10 -3 -32 -10 -51 -20 -55 -7 -2 -10 -8 -6 -13 3 -5 1 -9 -4 -9 -6 0 -13
-12 -17 -27 -3 -16 -13 -35 -20 -43 -7 -8 -15 -24 -17 -35 -1 -11 -10 -25 -18
-32 -8 -6 -12 -15 -8 -18 4 -4 0 -14 -8 -22 -8 -8 -12 -19 -9 -24 4 -5 1 -9
-4 -9 -6 0 -11 -7 -11 -15 0 -8 -4 -15 -8 -15 -5 0 -19 -26 -32 -57 -13 -32
-28 -61 -33 -64 -5 -3 -8 -9 -8 -13 1 -3 -6 -20 -14 -36 -9 -17 -12 -30 -8
-30 5 0 -1 -7 -11 -15 -11 -8 -16 -15 -10 -15 5 0 4 -4 -1 -8 -12 -8 -39 -64
-37 -74 1 -5 -3 -8 -8 -8 -5 0 -9 -3 -8 -7 3 -13 -36 -93 -45 -93 -4 0 -6 -4
-3 -8 3 -5 -8 -28 -25 -53 -16 -24 -29 -48 -29 -52 0 -5 -16 -40 -35 -78 -19
-38 -32 -69 -28 -69 4 0 -3 -10 -15 -22 -11 -13 -22 -30 -24 -38 -2 -8 -9 -21
-16 -28 -7 -8 -10 -18 -7 -23 4 -5 1 -9 -5 -9 -7 0 -10 -7 -6 -15 3 -8 2 -15
-2 -15 -4 0 -13 -15 -21 -32 -8 -18 -22 -45 -32 -59 -10 -14 -16 -29 -12 -33
3 -3 1 -6 -6 -6 -7 0 -9 -4 -6 -10 3 -5 2 -10 -2 -10 -5 0 -17 -22 -28 -50
-11 -27 -23 -50 -27 -50 -4 0 -7 -3 -6 -7 1 -5 -6 -23 -15 -40 -10 -18 -14
-33 -10 -33 5 0 1 -6 -8 -13 -16 -12 -33 -46 -31 -59 1 -5 -2 -8 -8 -8 -5 0
-10 -4 -10 -10 0 -17 -34 -90 -42 -90 -5 0 -8 -9 -8 -19 0 -11 -5 -23 -10 -26
-6 -4 -8 -10 -5 -15 3 -4 -2 -11 -11 -14 -8 -3 -12 -10 -9 -16 3 -5 1 -10 -4
-10 -6 0 -11 -7 -11 -15 0 -8 -5 -15 -10 -15 -6 0 -9 -3 -8 -8 4 -11 -35 -102
-44 -102 -4 0 -8 -8 -8 -19 0 -10 -10 -30 -21 -45 -12 -15 -19 -30 -15 -33 3
-3 -1 -11 -10 -17 -8 -6 -16 -21 -17 -33 0 -13 -7 -25 -15 -28 -7 -3 -11 -9
-8 -14 3 -4 -3 -19 -14 -31 -23 -26 -25 -35 -8 -24 7 5 3 -5 -10 -20 -12 -16
-20 -32 -17 -36 3 -4 -2 -11 -11 -14 -9 -4 -14 -9 -11 -12 3 -4 -1 -13 -9 -21
-8 -8 -12 -19 -9 -24 4 -5 1 -9 -4 -9 -6 0 -10 -3 -10 -7 3 -20 -2 -34 -11
-28 -6 3 -7 -1 -4 -9 3 -9 2 -16 -4 -16 -9 0 -27 -47 -24 -62 1 -5 -3 -8 -10
-8 -6 0 -9 -3 -5 -6 3 -3 -2 -14 -11 -25 -9 -11 -15 -21 -12 -23 3 -1 -3 -10
-13 -20 -9 -10 -15 -22 -12 -27 4 -5 1 -9 -4 -9 -6 0 -11 -5 -11 -11 0 -15
-32 -83 -43 -90 -5 -3 -8 -9 -8 -13 3 -17 -12 -55 -20 -50 -8 5 -11 -3 -8 -22
0 -4 -3 -10 -8 -13 -5 -3 -17 -24 -27 -46 -9 -22 -21 -48 -26 -57 -24 -43 -29
-54 -35 -73 -3 -11 -5 -21 -3 -22 2 -1 -6 -9 -17 -17 -11 -9 -16 -16 -12 -16
5 0 1 -7 -7 -16 -9 -8 -14 -20 -11 -25 4 -5 2 -9 -3 -9 -6 0 -13 -7 -16 -16
-4 -10 -2 -13 7 -9 6 4 4 0 -6 -8 -10 -9 -17 -17 -16 -19 4 -5 -32 -80 -52
-109 -10 -14 -16 -29 -12 -33 3 -3 1 -6 -6 -6 -7 0 -9 -4 -6 -10 3 -5 1 -10
-4 -10 -6 0 -11 -5 -11 -11 0 -16 -52 -123 -64 -131 -6 -4 -7 -8 -3 -8 5 0 0
-13 -9 -29 -10 -17 -22 -27 -27 -24 -6 3 -7 1 -3 -5 4 -6 -1 -26 -11 -44 -9
-18 -18 -35 -18 -38 -2 -12 -51 -109 -77 -153 -15 -26 -28 -54 -28 -62 0 -8
-4 -15 -10 -15 -5 0 -10 -9 -10 -19 0 -11 -6 -26 -13 -33 -8 -7 -16 -24 -20
-38 -3 -14 -15 -35 -26 -47 -11 -11 -17 -24 -14 -27 4 -3 1 -6 -5 -6 -6 0 -9
-6 -6 -13 2 -7 -5 -24 -16 -37 -11 -13 -18 -30 -16 -37 3 -7 1 -13 -4 -13 -6
0 -10 -7 -10 -15 0 -8 -4 -15 -10 -15 -5 0 -9 -3 -8 -7 3 -10 -31 -82 -47
-103 -6 -8 -18 -31 -25 -50 -7 -19 -19 -42 -26 -50 -7 -8 -13 -18 -13 -23 0
-15 -35 -87 -42 -87 -4 0 -13 -16 -19 -35 -6 -19 -15 -35 -20 -35 -5 0 -7 -9
-5 -20 3 -14 -2 -20 -13 -20 -13 0 -14 -2 -4 -9 11 -7 10 -9 -3 -15 -9 -3 -14
-10 -11 -15 4 -5 -1 -16 -9 -25 -9 -8 -16 -19 -15 -23 0 -16 -12 -43 -19 -43
-5 0 -16 -21 -26 -47 -10 -27 -25 -54 -33 -60 -13 -11 -13 -13 -1 -13 11 -1
10 -4 -3 -14 -10 -7 -18 -18 -18 -23 0 -13 -31 -77 -41 -83 -4 -3 -9 -12 -11
-20 -2 -8 -9 -21 -16 -29 -7 -7 -11 -19 -8 -27 3 -7 2 -14 -2 -16 -4 -2 -25
-39 -47 -83 -21 -44 -45 -87 -53 -97 -7 -9 -15 -22 -16 -30 -1 -7 -8 -23 -14
-35 -7 -13 -9 -23 -5 -23 4 0 3 -4 -2 -8 -6 -4 -24 -33 -40 -64 -15 -32 -32
-58 -37 -58 -5 0 -6 -4 -3 -10 3 -5 2 -10 -4 -10 -6 0 -8 -6 -5 -14 3 -7 -1
-20 -9 -28 -8 -8 -18 -25 -22 -38 -4 -14 -14 -34 -21 -45 -8 -11 -14 -27 -14
-37 0 -10 -4 -18 -10 -18 -5 0 -12 -11 -16 -25 -3 -14 -9 -25 -13 -25 -10 0
-33 -51 -27 -57 3 -3 -2 -12 -10 -20 -8 -8 -12 -19 -9 -24 4 -5 2 -9 -2 -9 -5
0 -17 -19 -28 -42 -10 -24 -27 -55 -37 -70 -11 -16 -16 -28 -13 -28 4 0 -1 -7
-10 -16 -9 -9 -14 -23 -11 -30 3 -8 2 -14 -2 -14 -7 0 -56 -97 -57 -113 0 -4
-5 -11 -11 -15 -12 -8 -28 -43 -26 -54 1 -5 -3 -8 -9 -8 -5 0 -8 -4 -4 -9 3
-5 -2 -16 -10 -24 -8 -9 -15 -20 -15 -25 0 -13 -32 -76 -43 -83 -5 -3 -8 -9
-8 -13 3 -17 0 -26 -11 -38 -7 -7 -22 -31 -32 -53 -20 -41 -23 -48 -25 -66 0
-5 -5 -8 -9 -5 -5 3 -9 0 -9 -7 -1 -22 -8 -41 -21 -55 -7 -8 -10 -18 -7 -23 4
-5 2 -9 -4 -9 -5 0 -13 -10 -17 -22 -3 -13 -12 -30 -19 -38 -7 -8 -15 -24 -17
-35 -1 -11 -10 -25 -18 -32 -8 -6 -12 -15 -8 -18 4 -4 0 -14 -8 -22 -8 -8 -12
-19 -9 -24 4 -5 1 -9 -4 -9 -6 0 -11 -9 -11 -21 0 -11 -4 -17 -10 -14 -6 3
-10 -3 -10 -13 0 -11 -7 -22 -15 -26 -8 -3 -14 -9 -13 -13 3 -15 -14 -63 -23
-63 -5 0 -8 -3 -7 -7 1 -5 -6 -23 -15 -40 -10 -18 -14 -33 -10 -33 5 0 -1 -7
-11 -15 -11 -8 -17 -15 -13 -15 4 0 -4 -18 -18 -40 -14 -22 -25 -42 -25 -45 0
-9 -83 -179 -90 -185 -3 -3 -14 -25 -25 -50 -11 -25 -23 -48 -28 -51 -5 -3 -8
-9 -8 -13 1 -3 -6 -20 -14 -36 -8 -16 -14 -32 -13 -35 2 -2 -5 -13 -14 -24 -9
-11 -14 -22 -11 -25 4 -3 2 -6 -4 -6 -10 0 -26 -36 -24 -53 1 -4 -5 -10 -13
-13 -8 -3 -12 -12 -9 -20 3 -8 0 -14 -6 -14 -6 0 -11 -3 -10 -7 2 -16 -14 -53
-22 -53 -5 0 -8 -3 -7 -7 4 -14 -13 -53 -23 -53 -5 0 -9 -9 -9 -20 0 -11 -4
-20 -8 -20 -4 0 -14 -16 -21 -35 -7 -19 -17 -35 -22 -35 -6 0 -8 -4 -5 -9 6
-9 -29 -87 -43 -95 -5 -4 -12 -20 -16 -36 -4 -17 -11 -30 -16 -30 -5 0 -9 -6
-9 -12 0 -7 -16 -43 -35 -81 -19 -37 -35 -71 -35 -75 0 -4 -6 -14 -14 -24 -8
-9 -12 -19 -9 -22 4 -3 1 -6 -5 -6 -7 0 -12 -5 -12 -11 0 -5 -18 -47 -41 -92
-22 -45 -39 -83 -37 -84 1 -1 -5 -11 -14 -22 -9 -11 -14 -22 -11 -25 4 -3 2
-6 -4 -6 -10 0 -26 -36 -24 -52 1 -5 -4 -8 -11 -8 -6 0 -9 -3 -6 -6 4 -3 -9
-34 -28 -70 -19 -35 -31 -64 -26 -64 4 0 -2 -7 -12 -15 -11 -8 -16 -15 -10
-15 5 0 4 -4 -1 -8 -6 -4 -19 -26 -29 -49 -11 -24 -23 -43 -28 -43 -5 0 -7 -4
-3 -9 3 -5 -6 -31 -20 -57 -14 -26 -25 -53 -25 -61 0 -8 -4 -11 -10 -8 -9 5
-15 -16 -11 -38 1 -5 -3 -6 -9 -2 -9 6 -12 2 -14 -27 -1 -7 -4 -15 -7 -18 -5
-4 -33 -60 -105 -202 -13 -27 -24 -52 -24 -58 0 -5 -5 -10 -10 -10 -6 0 -9 -3
-8 -7 1 -5 -3 -18 -10 -30 -7 -13 -10 -23 -7 -23 3 0 -7 -19 -23 -42 -15 -24
-35 -59 -42 -78 -8 -19 -16 -37 -19 -40 -4 -3 -11 -16 -17 -30 -6 -14 -19 -43
-29 -65 -10 -22 -18 -43 -17 -48 1 -4 -3 -7 -9 -7 -5 0 -7 -4 -4 -10 3 -5 1
-10 -4 -10 -6 0 -10 -3 -10 -7 1 -5 0 -10 -1 -13 -14 -36 -23 -168 -12 -184 4
-6 8 -22 10 -36 2 -14 7 -26 13 -28 5 -2 9 -9 9 -15 0 -19 86 -107 104 -107 9
0 16 -4 16 -10 0 -10 100 -43 108 -35 3 2 13 0 23 -6 11 -6 19 -6 19 0 0 5 14
6 35 1 21 -5 38 -4 41 2 4 5 10 5 18 -1 7 -6 17 -6 26 -1 9 5 19 5 26 -1 8 -7
14 -6 19 1 3 6 12 7 18 3 19 -12 37 -12 37 -1 0 7 4 7 13 0 8 -7 18 -7 27 -2
9 5 19 5 27 -2 10 -8 13 -7 13 3 0 10 3 10 12 1 8 -8 17 -8 31 0 14 7 22 7 28
-3 6 -10 11 -10 22 -1 7 7 17 9 20 5 9 -9 67 -10 67 -1 0 4 11 4 23 -1 13 -5
30 -6 37 -1 7 4 22 5 32 1 11 -4 43 -4 72 -1 28 3 66 3 84 -1 18 -4 34 -3 37
1 3 4 19 5 36 1 18 -4 58 -4 91 -1 32 3 58 3 58 0 0 -4 7 -7 15 -7 8 0 15 5
15 10 0 5 5 5 13 -1 7 -6 18 -7 26 -2 8 4 23 5 33 1 11 -4 43 -4 72 -1 28 3
66 3 84 -1 18 -4 34 -3 37 1 3 4 19 5 36 1 18 -4 58 -4 91 -1 32 3 58 3 58 0
0 -4 7 -7 15 -7 8 0 15 5 15 10 0 5 5 5 13 -1 7 -6 18 -7 26 -2 8 4 23 5 33 1
11 -4 43 -4 72 -1 28 3 66 3 84 -1 18 -4 34 -3 37 1 3 4 20 4 39 0 18 -4 41
-3 50 2 9 5 16 5 16 0 0 -5 7 -9 15 -9 8 0 15 4 15 8 0 4 14 4 30 -1 20 -6 30
-5 30 2 0 7 5 6 14 -1 10 -9 16 -9 21 -1 5 7 11 8 19 1 7 -6 17 -6 26 -1 8 5
21 5 30 0 9 -5 22 -5 30 0 7 4 23 5 35 0 12 -4 29 -4 38 1 9 6 17 6 17 1 0 -5
7 -9 15 -9 8 0 15 4 15 8 0 4 14 4 30 -1 20 -6 30 -5 30 2 0 7 5 6 14 -1 10
-9 16 -9 21 -1 5 7 11 8 19 1 7 -6 17 -6 26 -1 8 5 21 5 30 0 9 -5 22 -5 30 0
7 4 24 4 37 -1 15 -6 23 -5 23 2 0 8 4 8 13 1 8 -7 18 -7 27 -2 8 5 21 5 30 0
9 -5 22 -5 30 0 7 4 23 5 35 0 12 -4 29 -4 38 1 9 6 17 6 17 1 0 -5 7 -9 15
-9 8 0 15 4 15 8 0 5 11 4 25 -1 16 -6 26 -6 31 1 4 7 10 6 19 -1 10 -8 15 -8
20 0 5 7 11 8 19 1 7 -6 17 -6 26 -1 8 5 21 5 30 0 9 -5 22 -5 30 0 7 4 23 5
34 0 49 -18 30 -49 338 550 61 118 130 251 153 295 23 44 86 166 140 270 54
105 127 246 163 315 35 69 100 195 144 280 44 85 113 218 153 295 40 77 109
211 154 298 146 283 243 470 306 592 35 66 98 189 141 273 44 84 99 192 124
240 25 48 104 200 175 337 71 138 152 295 181 350 28 55 102 199 164 320 62
121 116 225 120 230 4 6 67 127 140 270 73 143 156 305 185 360 29 55 90 172
135 260 146 283 241 467 305 590 34 66 106 206 160 310 54 105 119 231 145
280 47 89 167 321 294 569 64 125 66 130 49 149 -11 13 -13 17 -4 12 8 -5 5 6
-8 23 -12 18 -23 41 -24 52 -1 11 -5 20 -9 20 -4 0 -8 7 -8 15 0 8 -5 15 -11
15 -5 0 -8 4 -4 9 3 5 -1 15 -8 23 -16 16 -72 130 -69 141 1 4 -2 7 -8 7 -6 0
-10 3 -9 8 2 15 -14 52 -23 52 -5 0 -7 4 -3 9 3 5 0 15 -7 23 -18 18 -78 138
-78 154 0 8 -4 14 -10 14 -5 0 -10 9 -10 20 0 11 -5 20 -11 20 -5 0 -8 4 -4 9
3 5 -1 15 -8 23 -15 15 -97 183 -97 198 0 6 -5 10 -11 10 -5 0 -8 4 -4 9 3 5
0 15 -7 23 -18 19 -58 97 -58 114 0 8 -5 14 -11 14 -5 0 -7 5 -4 10 3 6 1 10
-5 10 -6 0 -8 5 -5 10 3 6 1 10 -4 10 -6 0 -11 9 -11 20 0 11 -5 20 -11 20 -5
0 -8 4 -4 9 3 5 -1 15 -8 23 -7 7 -20 28 -28 46 -7 17 -17 32 -21 32 -4 0 -5
7 -2 15 4 8 1 15 -6 15 -6 0 -8 5 -5 10 3 6 1 10 -4 10 -6 0 -11 6 -11 13 0
18 -24 67 -32 67 -5 0 -8 8 -8 18 0 10 -8 27 -17 38 -10 11 -19 26 -21 34 -2
8 -11 24 -20 34 -9 11 -11 16 -5 12 9 -5 11 -2 7 8 -3 9 -10 16 -15 16 -5 0
-9 8 -9 19 0 10 -7 24 -15 31 -8 7 -13 16 -10 20 2 4 -7 22 -20 40 -13 18 -22
37 -19 41 3 5 1 9 -4 9 -9 0 -25 37 -23 53 1 4 -4 7 -10 7 -5 0 -7 5 -4 10 3
6 1 10 -4 10 -6 0 -11 9 -11 20 0 11 -4 20 -10 20 -5 0 -10 9 -10 19 0 11 -4
21 -8 23 -10 4 -57 100 -54 111 1 4 -3 7 -9 7 -5 0 -8 4 -4 9 3 6 -2 14 -11
19 -9 5 -15 12 -13 16 4 13 -24 76 -35 76 -5 0 -6 3 -3 6 3 4 -2 18 -13 32
-11 13 -17 28 -14 33 3 5 0 9 -5 9 -6 0 -11 5 -11 12 0 6 -8 20 -17 31 -10 11
-12 17 -6 13 9 -5 11 -2 7 8 -3 9 -10 16 -15 16 -5 0 -9 6 -9 13 -1 21 -47
107 -54 100 -3 -3 -6 2 -6 13 0 10 -9 34 -20 52 -11 18 -20 39 -20 47 0 8 -4
15 -10 15 -5 0 -10 6 -10 13 0 19 -24 67 -33 67 -5 0 -6 4 -3 9 3 5 -1 14 -9
21 -8 7 -12 16 -9 21 3 5 0 9 -5 9 -6 0 -11 6 -11 14 0 8 -6 21 -12 28 -7 7
-14 19 -16 26 -5 24 -46 107 -56 114 -6 4 -7 8 -3 8 5 0 1 7 -7 16 -9 8 -14
20 -11 25 4 5 2 9 -3 9 -9 0 -25 37 -23 53 1 4 -3 7 -9 7 -5 0 -10 9 -10 20 0
11 -4 20 -10 20 -5 0 -10 6 -10 13 0 18 -24 67 -32 67 -5 0 -8 7 -8 15 0 8 -4
15 -10 15 -5 0 -10 6 -11 13 0 14 -92 77 -114 77 -8 0 -15 4 -15 8 0 5 -6 9
-12 10 -101 8 -132 8 -181 -2z"/>
<path d="M11408 10985 c-9 -17 -111 -212 -198 -380 -45 -88 -87 -166 -92 -172
-6 -7 -7 -13 -3 -13 4 0 3 -6 -2 -12 -11 -14 -73 -131 -205 -388 -116 -224
-238 -461 -313 -605 -34 -66 -102 -196 -150 -290 -85 -166 -161 -312 -302
-585 -39 -74 -104 -200 -145 -280 -42 -80 -113 -217 -158 -305 -45 -88 -119
-230 -163 -315 -44 -85 -110 -213 -147 -285 -37 -71 -96 -186 -132 -255 -36
-69 -114 -219 -173 -335 -59 -115 -133 -257 -163 -315 -30 -58 -95 -184 -144
-280 -50 -96 -114 -220 -143 -275 -29 -55 -106 -203 -171 -330 -65 -126 -142
-275 -170 -330 -29 -55 -87 -167 -129 -250 -42 -82 -108 -208 -145 -280 -229
-441 -580 -1122 -580 -1127 0 -1 14 -3 30 -3 17 0 30 3 30 7 0 4 11 4 23 -1
13 -5 30 -6 37 -1 7 5 23 5 34 1 26 -8 48 -8 63 2 6 4 15 3 18 -3 5 -8 11 -8
20 0 9 8 15 8 20 0 4 -6 12 -7 24 -1 10 6 23 6 31 1 8 -5 21 -5 31 0 9 5 18 7
20 5 11 -10 59 -13 59 -3 0 7 4 7 13 0 8 -7 18 -7 27 -2 9 5 19 5 27 -2 9 -7
13 -7 13 2 0 9 4 9 13 2 8 -7 18 -7 27 -2 9 5 19 5 27 -2 9 -7 13 -7 13 2 0 9
4 9 13 2 8 -7 18 -7 27 -2 9 5 19 5 27 -2 10 -8 13 -7 13 3 0 10 3 10 12 1 8
-8 17 -8 30 -1 13 7 23 7 31 0 8 -6 18 -6 27 -1 8 5 21 5 30 0 9 -5 22 -5 30
0 7 4 24 4 37 -1 16 -6 23 -5 23 4 0 8 3 7 9 -2 7 -12 13 -12 24 -3 7 7 17 9
20 5 9 -9 67 -10 67 -1 0 4 11 4 23 -1 13 -5 30 -6 37 -1 7 5 23 5 34 1 26 -8
48 -8 63 2 6 4 15 3 18 -3 5 -8 11 -8 20 0 9 8 15 8 20 0 4 -6 12 -7 24 -1 10
6 23 6 31 1 8 -5 21 -5 31 0 9 5 18 7 20 5 11 -10 59 -13 59 -3 0 7 4 7 13 0
8 -7 18 -7 27 -2 9 5 19 5 27 -2 9 -7 13 -7 13 2 0 9 4 9 13 2 8 -7 18 -7 27
-2 9 5 19 5 27 -2 9 -7 13 -7 13 2 0 9 4 9 13 2 8 -7 18 -7 27 -2 9 5 19 5 27
-2 10 -8 13 -7 13 3 0 10 3 10 12 1 8 -8 17 -8 30 -1 13 7 23 7 31 0 8 -6 18
-6 27 -1 8 5 21 5 30 0 9 -5 22 -5 30 0 7 4 24 4 37 -1 16 -6 23 -5 23 4 0 8
3 7 9 -2 7 -12 13 -12 24 -3 7 7 17 9 20 5 9 -9 67 -10 67 -1 0 4 11 4 23 -1
13 -5 30 -6 37 -1 7 5 23 5 34 1 26 -8 48 -8 63 2 6 4 15 3 18 -3 5 -8 11 -8
20 0 9 8 15 8 20 0 4 -6 12 -7 24 -1 10 6 23 6 31 1 8 -5 21 -5 31 0 9 5 18 7
20 5 11 -10 59 -13 59 -3 0 7 4 7 13 0 8 -7 18 -7 27 -2 9 5 19 5 27 -2 9 -7
13 -7 13 2 0 9 4 9 13 2 8 -7 18 -7 27 -2 9 5 19 5 27 -2 9 -7 13 -7 13 2 0 9
4 9 13 2 8 -7 18 -7 27 -2 9 5 19 5 27 -2 9 -7 13 -7 13 2 0 9 4 9 13 2 8 -7
18 -7 27 -2 9 5 19 5 27 -2 9 -7 13 -7 13 2 0 9 4 9 13 2 8 -7 18 -7 27 -2 9
5 19 5 27 -2 9 -7 13 -7 13 2 0 9 4 9 13 2 8 -7 18 -7 27 -2 9 5 19 5 27 -2 9
-7 13 -7 13 2 0 9 4 9 13 2 8 -7 18 -7 27 -2 9 5 19 5 27 -2 10 -8 13 -7 13 3
0 10 3 10 12 1 8 -8 17 -8 30 -1 13 7 23 7 31 0 8 -6 18 -6 27 -1 8 5 21 5 30
0 9 -5 22 -5 30 0 7 4 24 4 37 -1 16 -6 23 -5 23 4 0 8 3 7 9 -2 7 -12 13 -12
24 -3 7 7 17 9 20 5 9 -9 67 -10 67 -1 0 4 11 4 23 -1 13 -5 30 -6 37 -1 7 5
23 5 34 1 26 -8 48 -8 63 2 6 4 15 3 18 -3 5 -8 11 -8 20 0 9 8 15 8 20 0 4
-6 12 -7 24 -1 10 6 23 6 31 1 8 -5 21 -5 31 0 9 5 18 7 20 5 11 -10 59 -13
59 -3 0 7 4 7 13 0 8 -7 18 -7 27 -2 9 5 19 5 27 -2 9 -7 13 -7 13 2 0 9 4 9
13 2 8 -7 18 -7 27 -2 9 5 19 5 27 -2 9 -7 13 -7 13 2 0 9 4 9 13 2 8 -7 18
-7 27 -2 9 5 19 5 27 -2 10 -8 13 -7 13 3 0 10 3 10 12 1 8 -8 17 -8 30 -1 13
7 23 7 31 0 8 -6 18 -6 27 -1 8 5 21 5 30 0 9 -5 22 -5 30 0 7 4 24 4 37 -1
16 -6 23 -5 23 4 0 8 3 7 9 -2 7 -12 13 -12 24 -3 7 7 17 9 20 5 9 -9 67 -10
67 -1 0 4 11 4 23 -1 13 -5 30 -6 37 -1 7 5 23 5 34 1 26 -8 48 -8 63 2 6 4
15 3 18 -3 5 -8 11 -8 20 0 9 8 15 8 20 0 4 -6 12 -7 24 -1 10 6 23 6 31 1 8
-5 21 -5 31 0 9 5 18 7 20 5 11 -10 59 -13 59 -3 0 7 4 7 13 0 8 -7 18 -7 27
-2 9 5 19 5 27 -2 9 -7 13 -7 13 2 0 9 4 9 13 2 8 -7 18 -7 27 -2 9 5 19 5 27
-2 9 -7 13 -7 13 2 0 9 4 9 13 2 8 -7 18 -7 27 -2 9 5 19 5 27 -2 10 -8 13 -7
13 3 0 10 3 10 12 1 8 -8 17 -8 30 -1 13 7 23 7 31 0 8 -6 18 -6 27 -1 8 5 21
5 30 0 9 -5 22 -5 30 0 7 4 24 4 37 -1 16 -6 23 -5 23 4 0 8 3 7 9 -2 7 -12
13 -12 24 -3 7 7 17 9 20 5 9 -9 67 -10 67 -1 0 4 11 4 23 -1 13 -5 30 -6 37
-1 7 5 23 5 34 1 26 -8 48 -8 63 2 6 4 15 3 18 -3 5 -8 11 -8 20 0 9 8 15 8
20 0 4 -6 12 -7 24 -1 10 6 23 6 31 1 8 -5 21 -5 31 0 9 5 18 7 20 5 11 -10
59 -13 59 -3 0 7 4 7 13 0 8 -7 18 -7 27 -2 9 5 19 5 27 -2 9 -7 13 -7 13 2 0
9 4 9 13 2 8 -7 18 -7 27 -2 9 5 19 5 27 -2 9 -7 13 -7 13 2 0 9 4 9 13 2 8
-7 18 -7 27 -2 9 5 19 5 27 -2 10 -8 13 -7 13 3 0 10 3 10 12 1 8 -8 17 -8 30
-1 13 7 23 7 31 0 8 -6 18 -6 27 -1 8 5 21 5 30 0 9 -5 22 -5 30 0 7 4 24 4
37 -1 16 -6 23 -5 23 4 0 8 3 7 9 -2 7 -12 13 -12 24 -3 7 7 17 9 20 5 9 -9
67 -10 67 -1 0 4 11 4 23 -1 13 -5 30 -6 37 -1 7 5 23 5 34 1 26 -8 48 -8 63
2 6 4 15 3 18 -3 5 -8 11 -8 20 0 9 8 15 8 20 0 4 -6 12 -7 24 -1 10 6 23 6
31 1 8 -5 21 -5 31 0 9 5 18 7 20 5 11 -10 59 -13 59 -3 0 7 4 7 13 0 8 -7 18
-7 27 -2 9 5 19 5 27 -2 9 -7 13 -7 13 2 0 9 4 9 13 2 8 -7 18 -7 27 -2 9 5
19 5 27 -2 9 -7 13 -7 13 2 0 9 4 9 13 2 8 -7 18 -7 27 -2 9 5 19 5 27 -2 9
-7 13 -7 13 2 0 9 3 10 13 1 8 -6 16 -8 20 -5 8 8 57 12 57 4 0 -4 7 -7 15 -7
8 0 15 4 15 8 0 5 11 4 24 -1 15 -5 27 -5 34 2 6 6 12 6 16 -1 5 -8 13 -8 26
-1 13 7 21 7 25 0 5 -8 11 -7 21 1 11 9 14 9 14 0 0 -7 5 -9 13 -4 6 4 20 6
30 5 9 -2 17 3 17 10 0 9 3 9 10 -2 5 -8 10 -10 10 -4 0 6 18 16 40 23 22 6
40 17 40 23 0 6 3 8 7 5 8 -9 94 84 87 94 -2 4 4 12 13 18 10 6 15 11 11 11
-4 0 -1 15 6 33 8 17 13 47 12 65 0 17 3 32 7 32 5 0 5 5 1 12 -4 7 -9 28 -11
48 -2 19 -8 37 -13 38 -6 2 -10 15 -10 28 0 13 -4 24 -10 24 -5 0 -10 6 -10
13 0 7 -10 33 -22 58 -12 24 -21 47 -20 52 1 4 -2 7 -8 7 -5 0 -10 7 -10 15 0
8 -5 15 -11 15 -5 0 -8 4 -5 8 4 8 -22 72 -34 82 -10 8 -74 144 -72 153 1 4
-2 7 -8 7 -6 0 -9 3 -8 8 2 8 -24 65 -33 72 -10 8 -49 93 -49 107 0 7 -4 13
-8 13 -9 0 -37 70 -34 83 1 4 -2 7 -6 7 -5 0 -17 17 -28 38 -10 20 -26 46 -34
56 -13 17 -13 18 0 11 9 -5 8 0 -4 13 -11 12 -15 22 -10 22 5 0 3 4 -4 9 -7 4
-14 17 -15 29 0 12 -7 24 -15 27 -8 3 -11 12 -8 20 3 8 1 15 -4 15 -9 0 -83
144 -87 169 -1 8 -7 17 -14 21 -6 4 -8 13 -5 19 4 6 3 11 -3 11 -6 0 -13 11
-17 25 -3 14 -10 25 -14 25 -4 0 -13 15 -20 33 -8 17 -18 38 -24 46 -6 7 -11
19 -12 25 -3 24 -17 56 -25 56 -5 0 -9 6 -9 13 0 26 -31 77 -43 71 -7 -4 -9
-4 -5 1 4 4 3 14 -4 22 -6 7 -8 16 -5 19 3 4 0 13 -8 21 -8 8 -15 23 -15 34 0
10 -3 19 -7 19 -8 0 -33 48 -33 63 0 5 -9 21 -19 36 -11 15 -21 34 -23 41 -2
8 -9 21 -16 28 -7 8 -10 18 -7 23 4 5 2 9 -4 9 -5 0 -12 14 -16 30 -4 17 -11
28 -16 25 -5 -4 -6 1 -3 9 3 9 1 16 -5 16 -6 0 -11 9 -11 20 0 11 -5 20 -11
20 -5 0 -8 4 -4 9 3 6 -1 13 -9 18 -8 4 -15 11 -16 15 0 4 -9 28 -20 54 -11
25 -20 49 -20 54 0 5 -5 10 -10 12 -6 2 -12 13 -13 25 0 13 -7 25 -15 28 -8 3
-12 11 -9 19 3 7 -3 19 -14 27 -10 7 -19 20 -19 29 0 8 -10 31 -22 50 -12 19
-23 40 -23 45 -5 26 -18 54 -24 51 -4 -3 -8 5 -8 17 -1 12 -7 23 -13 25 -5 2
-8 8 -4 13 3 5 0 9 -6 9 -6 0 -8 5 -5 10 3 6 1 10 -4 10 -6 0 -11 7 -11 16 0
8 -5 12 -10 9 -6 -4 -9 -3 -8 2 5 13 -24 93 -34 93 -4 0 -8 6 -8 13 0 7 -13
37 -30 67 -16 30 -35 67 -41 83 -6 15 -15 27 -21 27 -5 0 -7 4 -3 9 3 5 1 12
-5 16 -6 4 -8 11 -5 16 4 5 1 9 -4 9 -6 0 -11 8 -11 17 0 9 -8 25 -17 36 -13
15 -14 19 -3 13 9 -5 8 -2 -2 7 -10 8 -15 17 -11 20 3 4 1 7 -6 7 -7 0 -10 4
-7 9 4 5 2 11 -2 13 -8 3 -76 139 -73 145 0 2 -10 22 -24 45 -13 24 -37 68
-52 98 -15 30 -31 56 -35 58 -4 2 -4 10 -1 18 3 8 -1 14 -8 14 -7 0 -9 3 -6 6
4 4 -4 21 -16 38 -12 17 -21 32 -19 34 7 7 0 22 -8 17 -5 -3 -10 3 -10 14 0
12 -5 21 -11 21 -5 0 -7 5 -4 10 3 6 -1 17 -9 26 -9 8 -16 22 -16 30 0 8 -5
14 -11 14 -5 0 -7 4 -4 10 6 10 -20 63 -43 88 -7 8 -10 17 -7 22 3 4 -2 11
-10 14 -8 3 -14 9 -13 13 2 8 -27 74 -63 146 -10 20 -15 37 -11 37 4 0 -1 5
-10 10 -9 6 -24 30 -34 55 -9 25 -20 45 -23 45 -4 0 -8 10 -8 22 -1 13 -7 24
-13 26 -5 2 -8 8 -4 13 3 5 0 9 -6 9 -6 0 -9 4 -5 9 3 5 -2 17 -11 25 -8 9
-12 16 -8 16 4 0 0 8 -8 18 -14 15 -60 108 -99 200 -8 17 -17 32 -21 32 -5 0
-8 7 -8 15 0 8 -5 15 -10 15 -6 0 -9 3 -8 8 1 4 -10 34 -26 67 -15 33 -35 76
-44 95 -9 19 -18 37 -21 40 -14 12 -41 70 -34 70 4 0 3 4 -3 8 -11 8 -47 78
-50 100 -1 8 -11 23 -21 35 -13 14 -14 18 -3 13 13 -7 13 -6 0 6 -8 7 -22 22
-30 32 -13 18 -13 19 0 11 13 -7 13 -6 -1 11 -18 23 -69 128 -69 143 0 6 -5
11 -11 11 -5 0 -7 5 -4 10 3 6 1 10 -6 10 -7 0 -10 3 -6 6 3 4 -1 13 -9 21 -8
8 -12 19 -9 24 4 5 1 9 -4 9 -6 0 -11 7 -11 15 0 8 -4 15 -10 15 -5 0 -7 7 -4
15 4 8 1 15 -6 15 -6 0 -8 5 -5 10 3 6 1 10 -4 10 -6 0 -11 5 -11 10 0 11 -41
102 -49 110 -13 11 -50 87 -46 92 3 3 -1 11 -10 18 -8 7 -15 18 -15 24 0 18
-24 66 -33 66 -5 0 -5 5 -2 10 3 6 1 10 -5 10 -6 0 -9 4 -6 9 3 5 -1 14 -9 21
-8 7 -12 16 -9 21 3 5 1 9 -4 9 -10 0 -36 58 -33 73 0 4 -4 7 -10 7 -5 0 -7 5
-4 10 3 6 1 10 -4 10 -6 0 -11 4 -11 10 0 18 -34 90 -43 90 -4 0 -5 5 -2 10 3
6 1 10 -5 10 -6 0 -8 5 -5 10 3 6 1 10 -4 10 -6 0 -11 7 -11 15 0 8 -5 15 -11
15 -5 0 -7 5 -4 10 3 6 -1 17 -9 26 -9 9 -14 19 -11 24 3 5 0 10 -5 12 -6 2
-13 16 -16 32 -2 15 -11 35 -20 43 -21 21 -44 69 -37 77 4 3 1 6 -6 6 -7 0 -9
5 -6 10 3 6 3 10 -2 10 -9 0 -33 48 -33 67 0 7 -5 13 -11 13 -5 0 -7 5 -4 10
3 6 2 10 -4 10 -6 0 -7 7 -4 17 4 11 3 14 -5 9 -8 -5 -12 0 -12 13 0 10 -4 21
-9 23 -5 2 -11 10 -13 18 -2 8 -9 21 -16 28 -7 8 -10 18 -7 23 4 5 3 9 -2 9
-9 0 -33 48 -33 67 0 7 -5 13 -11 13 -5 0 -7 5 -4 10 3 6 1 10 -5 10 -6 0 -8
5 -5 10 3 6 1 10 -5 10 -6 0 -9 4 -6 9 4 5 3 11 -1 13 -10 4 -68 121 -65 131
1 4 -3 7 -9 7 -5 0 -7 5 -4 10 3 6 1 10 -5 10 -6 0 -8 5 -5 10 3 6 1 10 -5 10
-6 0 -8 5 -5 10 3 6 1 10 -5 10 -7 0 -10 7 -6 15 3 8 1 15 -3 15 -10 0 -76
130 -73 143 1 4 -2 7 -8 7 -5 0 -9 3 -8 8 2 8 -24 65 -33 72 -3 3 -10 18 -16
35 -5 16 -12 25 -15 20z"/>
</g>
</svg>
